<svg width="500" height="500" viewBox="0 0 500 500" fill="none" xmlns="http://www.w3.org/2000/svg">
<path fill-rule="evenodd" clip-rule="evenodd" d="M37.2207 211.44L395.833 5.14139L464.599 43.7018V456.298L395.833 496.465L37.2207 291.131V211.44ZM329.316 201.799V299.165L240.306 249.357L329.316 201.799Z" fill="#FCFCFD"/>
<path fill-rule="evenodd" clip-rule="evenodd" d="M217.446 103.498C119.128 160.423 33.3768 211.118 33.3768 211.118C33.3768 211.118 33.2789 218.526 33.3768 251.766C33.4747 285.006 33.4962 292.237 33.4962 292.237L396.433 500L431.5 481.058C450.241 470.287 466.036 460.731 466.598 459.823C467.161 458.915 467.439 364.218 467.216 249.384L466.809 40.5966L396.209 0L217.446 103.498ZM459.924 246.123C460.139 356.78 459.457 451.157 459.457 451.157C459.457 451.157 444.18 443.21 319.22 371.354C242.025 326.965 179.129 290.224 179.45 289.706C179.771 289.187 192.999 281.272 208.846 272.115L237.657 255.466L400.287 347.28L400.001 184.443C399.844 94.8818 399.645 19.0726 399.558 15.9788L399.402 10.3531L459.533 44.9293L459.924 246.123ZM392.69 174.798L393.009 335.491L333.112 300.136L332.932 208.974C332.833 158.837 332.567 117.146 332.34 116.328C331.95 114.909 312.497 126.022 124.835 234.879C80.2252 260.754 40.6682 283.419 40.6682 283.419V248.695L40.6214 214.486L216.092 112.802C312.601 56.8753 391.745 11.7894 391.967 12.6101C392.189 13.4328 392.515 86.4158 392.69 174.798ZM325.539 162.897L325.525 196.135L164.646 289.284L310.5 373.154C390.72 419.282 456.139 457.397 455.877 457.853C454.894 459.563 398.007 492.001 396.433 491.748C395.529 491.603 316.096 446.036 219.912 390.488L45.0307 289.489L129.915 240.306C176.599 213.256 239.464 176.823 269.611 159.346C299.76 141.87 324.681 128.039 324.989 128.614C325.3 129.187 325.547 144.614 325.539 162.897ZM325.737 251.617L325.794 295.927L305.737 284.862C294.705 278.778 276.864 268.519 266.091 262.065L246.505 250.334L285.243 227.867C306.551 215.51 324.364 205.829 324.831 206.353C325.298 206.877 325.705 227.245 325.737 251.617Z" fill="#101218"/>
</svg>
